<svg xmlns="http://www.w3.org/2000/svg" width="211.303" height="86.5" viewBox="0 0 211.303 86.5"><g transform="translate(1.5 1.5)"><path d="M107.406,0,95.585,23.953,69.15,27.794,88.279,46.44,83.763,72.768l23.644-12.43,23.644,12.43L126.534,46.44l19.128-18.646-26.434-3.841Z" transform="translate(-4.994)" fill="#fff" stroke="#9d3b1f" stroke-linejoin="round" stroke-width="3"/><path d="M197.75,55.594l-17.255-3.381,7.812,15.753-8.548,15.365,17.4-2.562,11.972,12.878,2.94-17.336L228.013,68.9l-15.578-8.154L210.318,43.3Z" transform="translate(-19.71 -10.147)" fill="#fbdbcd" stroke="#9d3b1f" stroke-linejoin="round" stroke-width="3"/><path d="M15.579,60.752,0,68.905l15.947,7.405,2.939,17.337L30.859,80.77l17.4,2.562L39.706,67.965l7.813-15.752L30.264,55.594,17.7,43.3Z" transform="translate(0 -10.147)" fill="#fff" stroke="#9d3b1f" stroke-linejoin="round" stroke-width="3"/></g></svg>