<svg xmlns="http://www.w3.org/2000/svg" width="28.53" height="18.28" viewBox="0 0 28.53 18.28"><g transform="translate(-381.595 -480.225)"><path d="M208.443,110.706a1.024,1.024,0,0,1-.633-1.079c.015-1.522.011-3.045,0-4.567a1.117,1.117,0,0,1,.4-.893q4.059-3.642,8.11-7.293a.845.845,0,0,1,1.257,0q4.063,3.654,8.128,7.309a1.072,1.072,0,0,1,.381.852c-.007,1.523-.014,3.045,0,4.568a1.042,1.042,0,0,1-.634,1.1h-.389a4.93,4.93,0,0,1-.576-.389q-3.049-2.731-6.087-5.474l-1.449-1.3c-.075.063-.137.112-.2.165q-3.566,3.209-7.135,6.415c-.244.218-.527.391-.793.585Z" transform="translate(492.301 272.415) rotate(90)" fill="#fff"/><path d="M216.958,63.925l-2.489,2.238q-2.582,2.323-5.165,4.646a.847.847,0,0,1-1.02.193.828.828,0,0,1-.458-.774q-.009-2.466,0-4.932a.918.918,0,0,1,.348-.694q2.683-2.411,5.363-4.826,1.372-1.235,2.745-2.47a.872.872,0,0,1,1.348-.007q4.035,3.633,8.073,7.262a1.092,1.092,0,0,1,.394.87c-.007,1.571,0,3.142,0,4.713,0,.6-.375,1-.918.931a1.185,1.185,0,0,1-.588-.3c-1.555-1.383-3.1-2.779-4.645-4.171l-2.983-2.684" transform="translate(467.11 272.407) rotate(90)" fill="#fff"/></g></svg>