<svg xmlns="http://www.w3.org/2000/svg" width="227" height="14" viewBox="0 0 227 14"><g transform="translate(-631.843 -1070.746)"><g transform="translate(654.106 1072.263)"><g transform="translate(-20.262 0.484)" fill="#f6b597" stroke="#f6b597" stroke-width="2"><circle cx="5" cy="5" r="5" stroke="none"/><circle cx="5" cy="5" r="6" fill="none"/></g><g transform="translate(192.738 0.484)" fill="none" stroke="#f6b597" stroke-width="2"><circle cx="5" cy="5" r="5" stroke="none"/><circle cx="5" cy="5" r="6" fill="none"/></g><g transform="translate(168.738 0.484)" fill="none" stroke="#f6b597" stroke-width="2"><circle cx="5" cy="5" r="5" stroke="none"/><circle cx="5" cy="5" r="6" fill="none"/></g><g transform="translate(145.738 0.484)" fill="none" stroke="#f6b597" stroke-width="2"><circle cx="5" cy="5" r="5" stroke="none"/><circle cx="5" cy="5" r="6" fill="none"/></g><g transform="translate(121.738 0.484)" fill="none" stroke="#f6b597" stroke-width="2"><circle cx="5" cy="5" r="5" stroke="none"/><circle cx="5" cy="5" r="6" fill="none"/></g><g transform="translate(97.738 0.484)" fill="none" stroke="#f6b597" stroke-width="2"><circle cx="5" cy="5" r="5" stroke="none"/><circle cx="5" cy="5" r="6" fill="none"/></g><g transform="translate(74.738 0.484)" fill="#f6b597" stroke="#f6b597" stroke-width="2"><circle cx="5" cy="5" r="5" stroke="none"/><circle cx="5" cy="5" r="6" fill="none"/></g><g transform="translate(50.738 0.484)" fill="#f6b597" stroke="#f6b597" stroke-width="2"><circle cx="5" cy="5" r="5" stroke="none"/><circle cx="5" cy="5" r="6" fill="none"/></g><g transform="translate(26.738 0.484)" fill="#f6b597" stroke="#f6b597" stroke-width="2"><circle cx="5" cy="5" r="5" stroke="none"/><circle cx="5" cy="5" r="6" fill="none"/></g><g transform="translate(3.738 0.484)" fill="#f6b597" stroke="#f6b597" stroke-width="2"><circle cx="5" cy="5" r="5" stroke="none"/><circle cx="5" cy="5" r="6" fill="none"/></g></g></g></svg>