<svg xmlns="http://www.w3.org/2000/svg" xmlns:xlink="http://www.w3.org/1999/xlink" width="364.658" height="165.382" viewBox="0 0 364.658 165.382"><defs><clipPath id="a"><rect width="364.658" height="165.382" fill="none"/></clipPath></defs><g clip-path="url(#a)"><path d="M13.467,164.07c4.1-8.362,13.052-13.421,22.337-13.462,2.07-.009,5.9,1.48,6.468,1.477,1.882-.008.93-2.577,3.439-2.588,1.255-.006,2.571-.137,3.764-.142l.376,0c.063.063.126.125.126.188,0,.816-.119,1.569-.115,2.385.023,5.207.8,10.474.823,15.743,0,1-2.757.828-3.384.83-.941,0-3.461-2.369-4.154-3.056-2.4-2.561-4.467-2.8-7.608-3.856a5.421,5.421,0,0,0-1.758-.243,10.549,10.549,0,0,0-6.45,2.664c-5.623,5.169-5.309,19.471,1.042,22.643a18.729,18.729,0,0,0,6.28,1.478c.816,0,1.568-.2,2.321-.2,2.572-.012,5.569-3.224,6.375-5.487a18.331,18.331,0,0,1,.87-1.948,1.136,1.136,0,0,1,1.062-.946c.5,0,1,.184,1.506.182.627,0,1.317-.194,1.944-.2l3.7-.017c1,0,1.383.684,1.388,1.688a14.794,14.794,0,0,1-2.473,8.292,13.8,13.8,0,0,1-2.181,3.209A47.629,47.629,0,0,1,44.1,196.87a19.981,19.981,0,0,1-8.713,1.858,36.635,36.635,0,0,1-12.494-2.2c-2.576-.93-3.4-2.056-5.224-3.867a21.663,21.663,0,0,1-1.826-1.56,34.5,34.5,0,0,1-2.4-4.193c-3.287-5.381-2.525-17.618.024-22.836" transform="translate(-6.769 -89.818)" fill="#d1704a"/><path d="M130.457,166.819c1.547-4.712,5.913-10.441,10.61-12.469a3.005,3.005,0,0,0,1.063-.633c1.811-1.827,3.759-1.271,5.89-1.908a4.873,4.873,0,0,1,1.379-.257c.314,0,.691.122,1.067.12a44.417,44.417,0,0,1,9.1.587,16.077,16.077,0,0,1,7.673,4.42c.568.625,1.073,1.313,1.7,1.937a9.751,9.751,0,0,1,2.271,2.813c.823,1.628,1.457,3.256,2.155,4.884,2.663,6.262,2.884,13.663-.969,21.962-1.429,3.081-2.553,4.215-4.927,6.609-3.5,3.529-11.4,4.944-16.29,4.966a18.188,18.188,0,0,1-6.027-1.04,12.172,12.172,0,0,0-1.445-.37,19.387,19.387,0,0,1-4.463-2.113c-2.39-1.244-6.052-6.686-7-8.94a25.754,25.754,0,0,1-1.785-20.569m10.917,14.444c1.9,4.7,5.433,8.571,10.891,8.546,4.83-.021,8.517-3.175,10.317-7.574a15.783,15.783,0,0,0,1.274-9.855A19.669,19.669,0,0,0,162.649,169c-1.27-3.382-3.1-4.754-5.74-7a14.913,14.913,0,0,0-5.465-1.356c-5.019.022-8.763,4.556-10.312,8.829a17.347,17.347,0,0,0,.241,11.793" transform="translate(-77.644 -91.141)" fill="#d1704a"/><path d="M263.744,188.337c-.029-6.65.505-13.365.476-20.078-.013-2.949-.906-6.27-4.048-7.2a33.1,33.1,0,0,1,.924-3.768c.123-.565-.069-1.317.306-1.821.312-.44.623-.944.935-1.384a1.378,1.378,0,0,1,.5-.065c1.506-.006,2.949.175,4.455.169,2.07-.009,4.14-.207,6.21-.216a2.1,2.1,0,0,1,.757,1.064,44.031,44.031,0,0,0,4.119,9.329c.948,1.564,1.4,3.319,2.343,4.883a21.876,21.876,0,0,1,1.649,3.945,35.417,35.417,0,0,0,1.96,3.442,3.505,3.505,0,0,1,.379.5,7.6,7.6,0,0,0,1.137,1.752c.049-3.012.6-6.025.587-9.037-.008-1.756-.141-3.575-.212-5.394-1.074-1.626-1.077-2.442-2.9-3.375a.631.631,0,0,1-.38-.626,24.1,24.1,0,0,1,1.291-6.091,4.562,4.562,0,0,1,1.817-.447c1.129-.005,2.259.178,3.389.173,1.254-.005,2.572-.137,3.826-.142,1,0,1.944-.323,2.822-.326a3.006,3.006,0,0,1,2.2,1.308l.9,4.576c0,.816-3.438,2.9-3.417,7.481.006,1.443-.112,2.949-.106,4.392l.021,18.821a5.211,5.211,0,0,0,.765,2.757c.441.5,1.633.495,1.637,1.31a1.488,1.488,0,0,1-.185.754c-.81,1.258-.678,2.763-1.3,4.021a.943.943,0,0,1-.875.631c-.564,0-1.193-.246-1.758-.243-.314,0-.627.128-.94.13-2.259.01-4.58-.168-6.839-.158-1,0-2.319.449-3.009.452-.126,0-.252-.187-.252-.312-.32-1.441-.7-2.695-1.085-4.073-.064-.251-.254-.564-.192-.815a2.828,2.828,0,0,0,1.182-2.263c-.008-1.694-1.585-3.632-2.406-5.071a24.7,24.7,0,0,1-1.646-3.443,33.1,33.1,0,0,0-4.613-7.508,2.562,2.562,0,0,1-.69-.06c-.622,1.195-.716,8.222-.708,10.041.009,2.008-.1,4.643,1.471,6.2.378.375,2.393,2.06,2.4,2.561.007,1.443-.739,3.077-.921,4.521a3.137,3.137,0,0,1-.752.129c-.753,0-1.444-.182-2.2-.179-3.388.015-6.774.407-10.1.421a2.853,2.853,0,0,1-1.256-.308,11.7,11.7,0,0,1-1.777-4.509c2.688-2.27,4.127-3.03,4.11-6.856" transform="translate(-156.139 -92.387)" fill="#d1704a"/><path d="M367.485,163.031l.727-5.775a20.2,20.2,0,0,1,.3-3.452c4.7-.147,9.535-.293,14.24-.314l9.912-.044c2.007-.009,3.951-.394,5.958-.4a46.067,46.067,0,0,1,5.083.354,46.262,46.262,0,0,1,1.158,6.582c.134,1.944.9,3.948.9,5.893l0,.377c-.187.126-.438.19-.563.379-.5.755-2.568.952-3.446.956-1.631.007-2.345-5.385-6.988-5.365-4.392.02-3.486,6.1-3.472,9.426.018,4.141.1,8.281.118,12.421.016,3.639,1.85,6.893,5.431,8.006-.06.565-1.042,5.651-1.166,5.84a1.858,1.858,0,0,1-1.628.76c-2.259.01-4.452.459-6.648.468-1.819.008-3.64-.235-5.459-.227-1.192.006-2.32.324-3.512.329-.063,0-.189-.062-.251-.061-.255-1.066-1.655-5.325-1.658-6.141a1.331,1.331,0,0,1,.435-.943,9.261,9.261,0,0,1,1.377-.634c1.44-.633,2.061-2.017,2.935-3.212a12.534,12.534,0,0,0,.239-2.636c.082-9.913,1.03-22.4-2.046-22.764a6.034,6.034,0,0,0-6.633,3.668c-.747,1.509-1,1.887-1.56,1.889a24.58,24.58,0,0,0-3.326-.3c-.627,0-1.13-.12-1.133-.873,0-.565.55-3.328.671-4.207" transform="translate(-220.596 -92.038)" fill="#d1704a"/><path d="M474.278,193.573c.688-.5,1.439-.947,2.126-1.452s1.25-1.2,1.937-1.765c0-.251.061-.44.059-.69l.021-23.589c0-.941-.509-1.692-.513-2.632-.005-1.192-2.394-2.311-3.336-2.62a.713.713,0,0,1-.191-.5c-.008-1.882,1.113-3.769,1.167-5.715.187-.189.312-.378.5-.566a2.564,2.564,0,0,1,.69-.066c4.015-.018,7.964-.725,11.98-.743,1.317-.006,2.573.24,3.828.234a30.924,30.924,0,0,1,5.9.225,24.546,24.546,0,0,1,4.085,1.487c3.331,1.178,6.852,3.044,8.123,6.677a14.173,14.173,0,0,1,1.023,4.2c.014,3.325-1.469,8.225-4.1,10.369l-.687.568c-1.063.883-2.316,1.2-3.379,1.96-.062.063-.25.189-.25.315s3.234,7.639,3.677,8.7a5.428,5.428,0,0,0,1.325,1.814c.693.562,3.519,1.176,4.651,1.736a12.433,12.433,0,0,1,.2,2.195,18.766,18.766,0,0,1-1.17,4.836l-.5.128c-1.129,0-2.259-.241-3.326-.236-1.317.006-5.207.023-6.272.4a2.139,2.139,0,0,1-.627.065,27.009,27.009,0,0,1-3.2-.049c-.439-.061-.565-.06-.755-.5-.634-1.441-1.273-4.2-1.843-5.387-.063-.125-.189-.25-.19-.376,0-.753,2.318-.826,2.31-2.708-.006-1.255-2.476-6.514-3.171-7.577a2.632,2.632,0,0,0-2.2-1.183c-2.384.011-2.94,1.958-2.931,4.028.006,1.506-.54,5.586,1.785,6.266.628.185,1.194.5,1.822.745a.774.774,0,0,1,.253.5c0,.063-2.107,5.844-2.231,6.1-.126,0-.313.064-.439.065-2.07.009-4.14.206-6.21.216a21.82,21.82,0,0,0-2.761-.176c-1.567.32-3.071.578-4.575.961-.566-.374-2.4-4.256-2.531-4.945a9.285,9.285,0,0,1-.069-1.317m14.873-27.168.01,2.133a3.714,3.714,0,0,0,1.14,2.442,33.7,33.7,0,0,0,3.515.486c2.321-.01,6.078-1.6,6.066-4.293-.015-3.45-2.464-4-5.35-3.991l-1.882.008c-2.2.01-3.51.831-3.5,3.215" transform="translate(-285.223 -92.151)" fill="#d1704a"/><path d="M581.177,193.3l.188-.126c1.191-.193,4.068-2.025,4.566-3.094,1.305-2.766,6.3-21.986,6.292-23.993-.01-2.384-.151-5.708-2.54-6.89.18-1.82.233-3.953.6-5.774a2.222,2.222,0,0,1,.627-.128c4.015-.018,7.966-.349,11.981-.367,2.2-.01,4.455.106,6.651.1,1.192-.005,2.32-.136,3.513-.141.692.436,1.086,4.324,1.09,5.2a7.737,7.737,0,0,1-.12,1.192c-.061.5-2.315,1.39-2.306,3.524,0,.878.008,1.819.075,2.7.2,2.7,4.431,22.942,6.133,24.817.631.687,3.65,2.618,3.841,3.057a22.291,22.291,0,0,0-1.17,4.9c-1,.193-6.085.152-7.465.159-1.569.007-6.4.091-7.341-.218-.572-1.629-1.018-3.133-1.652-4.7,1.124-1.134,2.564-1.768,2.557-3.273a24.951,24.951,0,0,0-.711-4.765l-.314-.187c-.69-.06-1.38-.12-2.07-.116-.816,0-1.694.07-2.572.074-1.882.008-3.387.141-3.817,2.338a15.98,15.98,0,0,0-.551,3.014c0,1.067,1.454,2.441,2.4,2.813-.494,1.7-1.051,3.455-1.545,5.151a7.1,7.1,0,0,0-2.26-.367c-1.694.008-3.448.454-5.142.462-.69,0-1.382-.244-2.072-.242-1.882.008-3.825.268-5.707.276h-.251a12.29,12.29,0,0,1-.957-3.76,7.08,7.08,0,0,1,.055-1.631m17.806-16.642a3.752,3.752,0,0,0,2.262.868c.941,0,3.135-.327,3.13-1.519a21.655,21.655,0,0,0-.705-3.385c-.323-1.943-.9-4.011-1.031-6.018a1.752,1.752,0,0,0-.381-1.128c-1.5.258-3.283,9.55-3.275,11.182" transform="translate(-349.465 -91.938)" fill="#d1704a"/><path d="M686.633,161.614l.727-5.775a20.147,20.147,0,0,1,.3-3.452c4.7-.146,9.534-.293,14.239-.314l9.912-.044c2.007-.009,3.951-.394,5.958-.4a46.062,46.062,0,0,1,5.083.354,46.282,46.282,0,0,1,1.158,6.582c.134,1.944.9,3.948.9,5.893v.377c-.187.126-.438.19-.563.379-.5.755-2.568.952-3.446.956-1.631.007-2.346-5.385-6.988-5.365-4.392.02-3.486,6.1-3.471,9.426.018,4.141.1,8.281.118,12.421.016,3.639,1.85,6.893,5.43,8.006-.06.565-1.042,5.651-1.166,5.84a1.859,1.859,0,0,1-1.628.76c-2.258.01-4.452.459-6.647.468-1.82.008-3.64-.235-5.459-.227-1.192.005-2.32.324-3.512.329-.062,0-.189-.062-.251-.061-.256-1.065-1.655-5.326-1.658-6.141a1.331,1.331,0,0,1,.435-.943,9.226,9.226,0,0,1,1.377-.634c1.44-.634,2.061-2.017,2.935-3.212a12.52,12.52,0,0,0,.239-2.636c.082-9.913,1.029-22.4-2.046-22.764a6.034,6.034,0,0,0-6.633,3.668c-.747,1.509-1,1.886-1.56,1.889a24.59,24.59,0,0,0-3.326-.3c-.628,0-1.13-.12-1.133-.873,0-.565.55-3.328.671-4.207" transform="translate(-412.526 -91.186)" fill="#d1704a"/><path d="M793.934,163.873c1.547-4.712,5.913-10.441,10.61-12.469a3,3,0,0,0,1.063-.633c1.811-1.827,3.759-1.271,5.889-1.908a4.879,4.879,0,0,1,1.379-.257c.314,0,.691.122,1.067.12a44.4,44.4,0,0,1,9.1.587,16.079,16.079,0,0,1,7.673,4.42c.567.625,1.072,1.313,1.7,1.937a9.755,9.755,0,0,1,2.271,2.813c.823,1.628,1.457,3.256,2.155,4.884,2.663,6.262,2.884,13.663-.969,21.962-1.429,3.081-2.554,4.215-4.927,6.609-3.5,3.529-11.4,4.944-16.289,4.966a18.189,18.189,0,0,1-6.027-1.04,12.156,12.156,0,0,0-1.445-.37,19.391,19.391,0,0,1-4.464-2.113c-2.39-1.244-6.052-6.686-7-8.94a25.754,25.754,0,0,1-1.785-20.569m10.917,14.443c1.9,4.7,5.433,8.571,10.891,8.546,4.831-.021,8.518-3.175,10.318-7.574a15.786,15.786,0,0,0,1.274-9.855,19.662,19.662,0,0,0-1.207-3.382c-1.27-3.382-3.1-4.754-5.74-7a14.908,14.908,0,0,0-5.464-1.356c-5.019.022-8.763,4.556-10.312,8.829a17.349,17.349,0,0,0,.24,11.793" transform="translate(-476.648 -89.37)" fill="#d1704a"/><path d="M110.994,11.586l.564-4.478a15.637,15.637,0,0,1,.232-2.677c3.648-.113,7.394-.227,11.042-.244l7.686-.034c1.557-.007,3.063-.306,4.62-.313a35.691,35.691,0,0,1,3.942.275,35.889,35.889,0,0,1,.9,5.1c.1,1.508.694,3.062.7,4.57v.292c-.145.1-.34.147-.436.294-.387.585-1.991.739-2.672.741-1.265.006-1.819-4.176-5.418-4.16-3.405.015-2.7,4.731-2.692,7.309.014,3.21.077,6.421.091,9.631a6.173,6.173,0,0,0,4.211,6.208c-.047.438-.808,4.382-.9,4.528a1.438,1.438,0,0,1-1.262.589c-1.751.008-3.452.356-5.155.364-1.411.006-2.823-.182-4.233-.176-.924,0-1.8.251-2.723.255-.048,0-.146-.048-.195-.047-.2-.826-1.283-4.129-1.286-4.761a1.038,1.038,0,0,1,.338-.731,7.192,7.192,0,0,1,1.068-.491c1.117-.491,1.6-1.564,2.275-2.491a9.7,9.7,0,0,0,.185-2.044c.063-7.687.8-17.371-1.586-17.652a4.679,4.679,0,0,0-5.144,2.845c-.578,1.17-.772,1.463-1.209,1.465a19.109,19.109,0,0,0-2.579-.232c-.487,0-.876-.093-.879-.677,0-.438.426-2.58.521-3.262" transform="translate(-66.437 -2.31)" fill="#9d3b1f"/><path d="M191.292,34.407a3.839,3.839,0,0,0,2.618-2.055c1.014-1.707.9-5.4.892-7.4l.063-7.735c-.006-1.459-.11-2.967-.117-4.474a9.415,9.415,0,0,0-.548-2.917,3.916,3.916,0,0,0-2.294-1.644c-.389-.1-.731-.289-.733-.775-.006-1.362.815-2.728.809-4.187.339-.342,2.042-.2,2.577-.206,2.773-.013,5.546.073,8.319.06.632,0,1.215-.2,1.848-.2.875,0,.685.921.688,1.457,0,1.119.593,2.186.6,3.257,0,.486-.24.682-.678.781a3.767,3.767,0,0,0-2.521,2.005,11.8,11.8,0,0,0-.667,3.214c0,.34.149.632.15.924-.044,1.119-.088,2.238-.083,3.357-.123,5.255-.026,5.108-.015,7.541,0,.632-.141,1.217-.138,1.85.005,1.167.315,5.155,1.242,5.783a8.372,8.372,0,0,1,1.659,1.16c.245.339.83.58.977.92a10.134,10.134,0,0,1-.861,3.312c-.582.44-2.967.208-3.794.211-1.119.005-2.237.156-3.356.161-.973,0-1.9-.332-2.823-.328-.876,0-1.751.153-2.626.157-.681,0-1.424-3.01-1.719-3.786.1-.341.193-.39.533-.44" transform="translate(-114.719 -1.728)" fill="#9d3b1f"/><path d="M244.133,30.877a5.741,5.741,0,0,0,.822-1.074c.242-.342.164-17.806.158-19.168-.007-1.605-1.42-1.988-2.446-3.005-.293-.291-.828-.288-.831-.823a34.45,34.45,0,0,1,1.777-5.019c1.02-.248,7.683-.618,9.143-.624,1.216-.006,2.432-.108,3.648-.114.584,0,1.168.092,1.7.138a9.376,9.376,0,0,0,1.168.092,17.3,17.3,0,0,1,6.817,1.429c.536.289,1.024.628,1.561.869.975.433.929,1.115,1.565,1.842a10.961,10.961,0,0,1,2.269,7.092c.04,8.951-6.417,12.044-14.1,12.954a26.057,26.057,0,0,1-2.723.353l-.194.1A5.8,5.8,0,0,0,254,28.5c.013,2.968,1.711,1.841,3.32,2.758.054,1.216-1.49,3.947-1.48,6.136a46.1,46.1,0,0,1-5.35.218c-.779,0-1.557-.188-2.336-.184-1.508.007-3.015.208-4.523.214a.9.9,0,0,1-.83-.531c-.049-.049-1.285-4.567-1.285-4.567,0-.827,1.844-.884,2.62-1.665m9.562-15.853a2.741,2.741,0,0,0,.935,2.428c.681,0,1.412.237,2.142.234a4.053,4.053,0,0,0,1.07-.151c3.158-.938,5.2-1.58,5.182-5.228-.014-3.259-2.646-4.415-5.565-4.4a3.968,3.968,0,0,0-3.835,1.914c0,.681-.14,1.314-.137,2.044,0,1.022.2,2.091.209,3.161" transform="translate(-145.242 -0.632)" fill="#9d3b1f"/><path d="M327.1,12.748c1.2-3.654,4.585-8.1,8.227-9.668a2.331,2.331,0,0,0,.825-.49c1.4-1.417,2.914-.986,4.566-1.48a3.787,3.787,0,0,1,1.069-.2c.243,0,.535.095.827.094a34.41,34.41,0,0,1,7.056.455,12.469,12.469,0,0,1,5.95,3.427c.44.485.832,1.018,1.32,1.5A7.562,7.562,0,0,1,358.7,8.57c.638,1.262,1.13,2.525,1.671,3.787,2.064,4.855,2.236,10.594-.751,17.029a15.222,15.222,0,0,1-3.82,5.125c-2.712,2.736-8.837,3.834-12.631,3.851a14.125,14.125,0,0,1-4.674-.806,9.39,9.39,0,0,0-1.12-.287,15.029,15.029,0,0,1-3.461-1.639c-1.853-.964-4.693-5.184-5.431-6.932a19.971,19.971,0,0,1-1.384-15.95m8.465,11.2c1.476,3.642,4.213,6.646,8.445,6.627,3.746-.016,6.605-2.462,8-5.873A12.238,12.238,0,0,0,353,17.06a15.238,15.238,0,0,0-.936-2.623c-.985-2.623-2.4-3.686-4.451-5.428a11.562,11.562,0,0,0-4.237-1.052c-3.892.018-6.795,3.533-8,6.846a13.455,13.455,0,0,0,.187,9.145" transform="translate(-196.083 -0.547)" fill="#9d3b1f"/><path d="M428.064,10.176c.473-2.872,3.858-7.557,6.335-8.542.971-.393,1.893-.835,2.864-1.229.291-.1,3.16-.4,3.452-.4a21.36,21.36,0,0,1,6.376.653A11.557,11.557,0,0,0,450.842,1.8a4.873,4.873,0,0,0,.967-1.269,2.365,2.365,0,0,1,.583-.051c.438,0,1.508-.007,1.8.284V1.06a4.444,4.444,0,0,1-.045.828,28.471,28.471,0,0,0-.073,5.4c0,.924.105,1.9.11,2.821l0,.584a9.3,9.3,0,0,1-2.82.3,9.011,9.011,0,0,0-2.639-2.615c-1.464-1.064-4.482-1.585-6.282-1.577-2.53.011-4.23.505-5.387,2.943-1.588,4,5.32,3.868,7.218,4.346,5.5.511,7.939,2.105,10.878,6.616a7.822,7.822,0,0,1,.99,3.741c.012,2.773-.8,6.766-3.222,8.528-.727.538-1.162,1.367-1.986,1.76a16.737,16.737,0,0,1-6.219,1.876l-2.481.011a18.355,18.355,0,0,1-3.651-.519,7.391,7.391,0,0,0-.974-.287c-1.071-.142-2.192-.769-3.263-.764a3.439,3.439,0,0,0-3.01,1.376l-.34,0c-2.286.01-1.8-.284-1.81-2.23l-.033-7.492c0-1.119-.3-2.188-.306-3.306,0-.584,2.138-.5,2.528-.5l.681,0a2.708,2.708,0,0,1,.293.388c1.323,1.989,2.5,3.784,4.692,4.844a7.31,7.31,0,0,0,3.313,1.007c.73,0,1.364.237,2.093.234,2.092-.009,5.2-1.239,5.189-3.72a2.624,2.624,0,0,0-.2-1.069c-.934-2.185-2.1-2.666-4.39-2.656-4.621.02-11.048-1.362-13.549-5.632a8.593,8.593,0,0,1-1.437-6.123" transform="translate(-257.361 0)" fill="#9d3b1f"/><path d="M543.407,31.687c1.36-.59,2.282-.886,2.762-2.445a12.9,12.9,0,0,0,.519-3.6c-.016-3.5.071-5.935.058-8.659a38.6,38.6,0,0,0-.617-7.489c-.446-1.8-2.826-1.058-2.832-2.371,0-.487.432-1.364.476-2.337,0-.729.473-3.116,1.4-3.12.827,0,1.7.236,2.58.232,2.627-.012,5.3-.461,7.927-.473l3.5-.016a15.657,15.657,0,0,1,11.3,4.181c.586.582,1.611,1.307,1.809,2.084a2.63,2.63,0,0,0,.246.534,34.174,34.174,0,0,1,2.513,7.091c.859,7.1-.142,11.822-4.4,17.581-1.74,2.343-5.333,3.867-8.2,4.123-.584.051-1.118.248-1.7.251-1.995.009-3.942-.323-5.937-.314-1.41.006-2.821-.036-4.232-.03-1.557.007-3.112.4-4.668.41l-1.022,0a9.944,9.944,0,0,1-.641-2.041c-.148-.486-1.177-2.135-1.178-2.378a3.484,3.484,0,0,1,.335-1.218m11.257-17.514c.016,3.6.073,5.546.088,8.951l.021,4.767a2.082,2.082,0,0,0,.3,1.069,3.885,3.885,0,0,0,2.192.671c2.675-.012,6.318-1.341,7.865-3.635a10.386,10.386,0,0,0,.964-1.95c2.164-5.7.228-14.4-7.312-14.367l-3.016.014c-1.165.589-1.1,3.41-1.1,4.48" transform="translate(-326.594 -0.846)" fill="#9d3b1f"/><path d="M635.9,7.07a7.878,7.878,0,0,1,.624-2c.336-.828.233-2.287.474-2.727.29-.536,1.8-.3,2.383-.3,1.362-.006,2.772-.158,4.183-.165,1.508-.006,2.968.279,4.282.273,1.119-.005,2.237-.156,3.356-.161,1.411.042,2.871.036,4.281.03,2.092-.01,4.231-.408,6.371-.418.584,0,1.362-.1,1.753.43,0,.486-.044.973-.042,1.46,0,.73.1,1.459.107,2.189.01,2.335-.125,4.671-.115,7.005a20.881,20.881,0,0,1-3.013.695c-1.129-2.282-3.914-5.042-6.639-5.03-.729,0-1.459.055-2.189.058-1.751.008-2.482-.33-3.838,1.038a.624.624,0,0,0-.193.488c.006,1.265-.086,2.53-.081,3.795a4.214,4.214,0,0,0,1.082,2.671,2.6,2.6,0,0,0,.633.046c1.946-.009,4.715-.9,5.534-2.749.241-.536,1.553-.785,2.137-.788h.292c.2.923.274,6.858.28,8.171a16.867,16.867,0,0,0-.034,3.5,10.319,10.319,0,0,1-1.749.494c-1.759-1.744-3.272-2.71-5.85-2.7a4.9,4.9,0,0,0-1.553.688c-1.261.832-.915,2.1-.909,3.409a3.194,3.194,0,0,0,.595,2.479c.734.921,2.925,1.495,4.044,1.49,3.794-.017,7.388-1.541,9.367-4.955a5.8,5.8,0,0,1,1.264-.248l.778,0c.635.629.32,6.468.326,7.734,0,.729.2,1.41.2,2.091a6.961,6.961,0,0,1-.334,1.363,9.928,9.928,0,0,0-.872.637c-1.168,0-2.286.2-3.4.209-4.67.021-9.341-.153-14.059-.132-2.578.012-5.253.169-7.832.181-.731-.337-1.519-2.474-1.522-3.252-.007-1.605,2.858-2.786,3.044-4.586a24.551,24.551,0,0,0,.134-2.676c0-.973-.106-1.946-.11-2.918l-.2-11.139c0-.389.094-.779.092-1.168-.01-2.238-1.229-2.767-2.839-3.976l-.195-.145a1.07,1.07,0,0,1-.051-.389" transform="translate(-382.419 -0.959)" fill="#9d3b1f"/><rect width="262.777" height="20.214" transform="matrix(0.999, -0.043, 0.043, 0.999, 87.135, 134.575)" fill="#9d3b1f"/><rect width="20.214" height="2.956" transform="translate(47.876 144.919) rotate(-2.489)" fill="#9d3b1f"/><rect width="14.438" height="12.273" transform="translate(349.701 126.775) rotate(-2.489)" fill="#d1704a"/><rect width="86.63" height="20.198" transform="translate(118.839 133.197) rotate(-2.488)" fill="#d1704a"/><path d="M147.056,353.27l-.376-8.639,28.665-7.027.877,20.179Z" transform="translate(-88.211 -203.029)" fill="#d1704a"/><line x2="0.407" y2="9.376" transform="translate(343.126 144.524)" fill="none" stroke="#9d3b1f" stroke-linecap="round" stroke-miterlimit="10" stroke-width="5"/><line y1="3.902" x2="89.763" transform="translate(252.207 153.968)" fill="none" stroke="#9d3b1f" stroke-linecap="round" stroke-miterlimit="10" stroke-width="5"/><line y1="3.902" x2="89.763" transform="translate(237.044 131.731)" fill="none" stroke="#f7b697" stroke-linecap="round" stroke-miterlimit="10" stroke-width="4"/><path d="M805.574,8.2a1.363,1.363,0,0,1,.842,1.434c-.02,2.024-.014,4.049,0,6.073a1.482,1.482,0,0,1-.531,1.187q-5.4,4.843-10.785,9.7a1.124,1.124,0,0,1-1.672,0q-5.4-4.86-10.809-9.72a1.424,1.424,0,0,1-.506-1.133c.01-2.024.018-4.049,0-6.073a1.386,1.386,0,0,1,.843-1.467h.517a6.545,6.545,0,0,1,.766.517q4.054,3.632,8.094,7.279l1.926,1.732c.1-.084.182-.149.261-.22q4.742-4.267,9.487-8.531c.324-.29.7-.52,1.054-.777Z" transform="translate(-470.346 -4.931)" fill="#fdcd4d"/><path d="M794.269,65.833l3.309-2.976q3.434-3.089,6.869-6.178a1.126,1.126,0,0,1,1.356-.256,1.1,1.1,0,0,1,.608,1.029q.011,3.278,0,6.558a1.221,1.221,0,0,1-.462.923q-3.568,3.206-7.132,6.417-1.824,1.642-3.65,3.284a1.16,1.16,0,0,1-1.792.009q-5.365-4.83-10.735-9.657a1.453,1.453,0,0,1-.525-1.158c.01-2.089,0-4.178.005-6.267,0-.8.5-1.331,1.221-1.238a1.574,1.574,0,0,1,.781.394c2.068,1.84,4.12,3.7,6.177,5.547l3.966,3.569" transform="translate(-470.352 -33.854)" fill="#fdcd4d"/><path d="M.842,386.576A1.362,1.362,0,0,1,0,385.142c.02-2.024.014-4.049,0-6.073a1.481,1.481,0,0,1,.531-1.187q5.4-4.843,10.785-9.7a1.124,1.124,0,0,1,1.672,0q5.4,4.86,10.809,9.72a1.425,1.425,0,0,1,.506,1.133c-.01,2.024-.018,4.049,0,6.073a1.386,1.386,0,0,1-.843,1.467h-.517a6.539,6.539,0,0,1-.766-.517q-4.054-3.632-8.094-7.279l-1.926-1.732c-.1.084-.183.149-.261.22q-4.742,4.267-9.487,8.531c-.324.29-.7.52-1.054.777H.842" transform="translate(0 -221.195)" fill="#fdcd4d"/><path d="M12.164,328.941l-3.309,2.976q-3.434,3.089-6.869,6.178a1.125,1.125,0,0,1-1.356.256,1.1,1.1,0,0,1-.608-1.028q-.011-3.279,0-6.558a1.22,1.22,0,0,1,.462-.923q3.568-3.206,7.132-6.417,1.824-1.642,3.649-3.284a1.16,1.16,0,0,1,1.792-.009q5.365,4.831,10.735,9.657a1.454,1.454,0,0,1,.525,1.158c-.01,2.089,0,4.178-.005,6.267,0,.8-.5,1.331-1.221,1.238a1.572,1.572,0,0,1-.781-.394c-2.068-1.839-4.12-3.7-6.177-5.546l-3.966-3.57" transform="translate(-0.01 -192.27)" fill="#fdcd4d"/></g></svg>